<?xml version="1.0" encoding="utf-8"?>
<!-- Generator: Adobe Illustrator 25.2.1, SVG Export Plug-In . SVG Version: 6.00 Build 0)  -->
<svg version="1.1" id="Layer_1" xmlns="http://www.w3.org/2000/svg" xmlns:xlink="http://www.w3.org/1999/xlink" x="0px" y="0px"
	 viewBox="0 0 116.1 116.1" style="enable-background:new 0 0 116.1 116.1;" xml:space="preserve">
<style type="text/css">
	.st0{fill:#DADADA;}
	.st1{fill:#575756;}
</style>
<rect class="st0" width="116.1" height="116.1"/>
<path class="st1" d="M32.25,51.85L11.61,39.71v-2.74l20.5-10.9v4.46l-15.6,7.82l15.74,8.74V51.85z"/>
<path class="st1" d="M36.28,53.77v-29.9h9.31c2.4,0,4.36,0.36,5.88,1.08c1.52,0.72,2.64,1.73,3.36,3.02
	c0.72,1.3,1.08,2.82,1.08,4.58c0,1.12-0.23,2.23-0.7,3.34c-0.46,1.1-1.14,2.08-2.02,2.93c-0.88,0.85-1.91,1.46-3.1,1.85l6.62,13.1
	h-5.04L45.4,41.1h-4.27v12.67H36.28z M41.13,37.11h4.8c1.73,0,3.02-0.41,3.86-1.22c0.85-0.82,1.27-1.9,1.27-3.24
	c0-0.83-0.18-1.6-0.55-2.3c-0.37-0.7-0.93-1.26-1.68-1.68c-0.75-0.42-1.72-0.62-2.9-0.62h-4.8V37.11z"/>
<path class="st1" d="M66.88,53.39c-1.42-0.6-2.68-1.53-3.77-2.77c-1.09-1.24-1.94-2.81-2.57-4.72c-0.62-1.91-0.94-4.18-0.94-6.82
	c0-2.32,0.23-4.35,0.7-6.08c0.46-1.73,1.1-3.2,1.9-4.39c0.8-1.19,1.71-2.15,2.74-2.86c1.02-0.72,2.1-1.24,3.22-1.57
	c1.12-0.33,2.24-0.5,3.36-0.5c2.24,0,4.15,0.52,5.74,1.56c1.58,1.04,2.78,2.47,3.58,4.3l-3.22,2.16l-0.38,0.24l-0.24-0.34
	c0.06-0.26,0.06-0.5-0.02-0.74c-0.08-0.24-0.26-0.57-0.55-0.98c-0.7-0.93-1.46-1.55-2.26-1.87c-0.8-0.32-1.62-0.48-2.45-0.48
	c-1.02,0-1.99,0.25-2.9,0.74c-0.91,0.49-1.7,1.21-2.38,2.17c-0.67,0.95-1.2,2.13-1.58,3.55c-0.38,1.41-0.58,3.04-0.58,4.88
	c0,1.78,0.18,3.37,0.55,4.78c0.37,1.41,0.88,2.62,1.54,3.62c0.66,1,1.42,1.76,2.3,2.28c0.88,0.52,1.83,0.79,2.86,0.79
	c0.8,0,1.54-0.11,2.21-0.34c0.67-0.22,1.3-0.6,1.87-1.13c0.58-0.53,1.09-1.16,1.54-1.9l3.36,2.35c-1.06,1.76-2.32,3.03-3.79,3.82
	c-1.47,0.78-3.22,1.18-5.23,1.18C69.83,54.3,68.31,53.99,66.88,53.39z"/>
<path class="st1" d="M36.28,91.9V62h9.31c2.4,0,4.36,0.36,5.88,1.08c1.52,0.72,2.64,1.73,3.36,3.02c0.72,1.3,1.08,2.82,1.08,4.58
	c0,1.12-0.23,2.23-0.7,3.34c-0.46,1.1-1.14,2.08-2.02,2.93c-0.88,0.85-1.91,1.46-3.1,1.85l6.62,13.1h-5.04L45.4,79.23h-4.27V91.9
	H36.28z M41.13,75.24h4.8c1.73,0,3.02-0.41,3.86-1.22c0.85-0.82,1.27-1.9,1.27-3.24c0-0.83-0.18-1.6-0.55-2.3
	c-0.37-0.7-0.93-1.26-1.68-1.68c-0.75-0.42-1.72-0.62-2.9-0.62h-4.8V75.24z"/>
<path class="st1" d="M66.88,91.52c-1.42-0.6-2.68-1.53-3.77-2.77c-1.09-1.24-1.94-2.81-2.57-4.72c-0.62-1.91-0.94-4.18-0.94-6.82
	c0-2.32,0.23-4.35,0.7-6.08c0.46-1.73,1.1-3.2,1.9-4.39c0.8-1.19,1.71-2.15,2.74-2.86c1.02-0.72,2.1-1.24,3.22-1.57
	c1.12-0.33,2.24-0.5,3.36-0.5c2.24,0,4.15,0.52,5.74,1.56c1.58,1.04,2.78,2.47,3.58,4.3l-3.22,2.16l-0.38,0.24l-0.24-0.34
	c0.06-0.26,0.06-0.5-0.02-0.74c-0.08-0.24-0.26-0.57-0.55-0.98c-0.7-0.93-1.46-1.55-2.26-1.87c-0.8-0.32-1.62-0.48-2.45-0.48
	c-1.02,0-1.99,0.25-2.9,0.74c-0.91,0.49-1.7,1.21-2.38,2.17c-0.67,0.95-1.2,2.13-1.58,3.55c-0.38,1.41-0.58,3.04-0.58,4.88
	c0,1.78,0.18,3.37,0.55,4.78c0.37,1.41,0.88,2.62,1.54,3.62c0.66,1,1.42,1.76,2.3,2.28c0.88,0.52,1.83,0.79,2.86,0.79
	c0.8,0,1.54-0.11,2.21-0.34c0.67-0.22,1.3-0.6,1.87-1.13c0.58-0.53,1.09-1.16,1.54-1.9l3.36,2.35c-1.06,1.76-2.32,3.03-3.79,3.82
	c-1.47,0.78-3.22,1.18-5.23,1.18C69.83,92.43,68.31,92.12,66.88,91.52z"/>
<path class="st1" d="M83.85,89.98v-4.61l15.7-8.88L83.9,68.67V64.2l20.59,10.9v2.74L83.85,89.98z"/>
</svg>
