<?xml version="1.0" standalone="no"?>
<!DOCTYPE svg PUBLIC "-//W3C//DTD SVG 20010904//EN"
 "http://www.w3.org/TR/2001/REC-SVG-20010904/DTD/svg10.dtd">
<svg version="1.0" xmlns="http://www.w3.org/2000/svg"
 width="700.000000pt" height="700.000000pt" viewBox="0 0 700.000000 700.000000"
 preserveAspectRatio="xMidYMid meet">
<metadata>
Created by potrace 1.11, written by Peter Selinger 2001-2013
</metadata>
<g transform="translate(0.000000,700.000000) scale(0.100000,-0.100000)"
fill="#000000" stroke="none">
<path d="M4145 5550 c-97 -25 -158 -53 -231 -105 -186 -133 -291 -358 -315
-677 -19 -254 18 -484 107 -667 39 -80 60 -109 133 -182 136 -136 269 -189
476 -189 183 0 309 45 418 149 52 49 117 130 117 145 0 2 -45 36 -99 74 l-99
70 -28 -40 c-42 -61 -110 -115 -173 -139 -77 -29 -214 -25 -282 9 -97 47 -170
133 -222 262 -55 135 -62 179 -61 400 0 179 3 215 22 283 65 234 208 380 387
395 85 6 180 -19 239 -64 53 -40 106 -118 106 -155 0 -15 5 -31 11 -34 12 -8
219 125 219 142 0 23 -102 163 -148 203 -145 124 -379 173 -577 120z"/>
<path d="M2190 4660 l0 -900 145 0 145 0 0 380 0 380 130 0 129 0 187 -380
187 -380 153 0 153 0 -200 393 -199 394 63 28 c41 19 84 50 127 94 115 116
166 250 157 411 -9 160 -72 288 -181 364 -145 101 -228 116 -667 116 l-329 0
0 -900z m730 623 c158 -71 210 -292 99 -426 -63 -76 -144 -97 -381 -97 l-158
0 0 276 0 276 198 -4 c171 -4 203 -7 242 -25z"/>
<path d="M1310 5097 l-605 -323 -3 -84 -2 -85 562 -330 c309 -181 588 -345
620 -363 l58 -33 0 143 0 143 -398 220 c-218 121 -430 239 -471 262 l-74 41
472 236 471 236 0 130 c0 98 -3 130 -12 130 -7 -1 -285 -146 -618 -323z"/>
<path d="M4142 3250 c-329 -86 -510 -347 -543 -783 -19 -254 19 -486 108 -667
39 -79 62 -110 132 -180 97 -96 170 -138 298 -170 151 -39 354 -20 481 44 60
30 148 109 199 178 l37 51 -30 23 c-16 13 -61 46 -100 73 l-70 49 -42 -54
c-84 -108 -176 -150 -316 -142 -149 8 -251 86 -330 251 -70 146 -81 208 -80
442 0 173 3 210 22 278 49 177 144 307 264 363 56 26 73 29 158 28 105 -1 156
-17 219 -70 45 -38 91 -111 91 -145 0 -15 5 -31 11 -34 12 -8 219 125 219 140
0 26 -69 126 -124 180 -70 69 -171 125 -267 149 -90 22 -244 20 -337 -4z"/>
<path d="M2190 2360 l0 -900 145 0 145 0 0 380 0 380 130 0 130 0 187 -380
186 -380 153 0 154 0 -200 393 -199 392 74 38 c178 92 285 287 272 497 -16
266 -167 424 -450 470 -34 5 -212 10 -394 10 l-333 0 0 -900z m730 624 c167
-77 213 -311 86 -438 -67 -67 -109 -78 -333 -83 l-193 -5 0 277 0 277 198 -4
c174 -3 202 -6 242 -24z"/>
<path d="M5060 2995 l0 -135 471 -236 471 -235 -471 -266 -471 -267 0 -139 0
-139 33 20 c17 11 127 75 242 143 116 67 271 159 346 203 75 45 245 144 378
221 l241 140 -3 85 -2 85 -515 273 c-283 150 -561 297 -617 327 l-103 54 0
-134z"/>
</g>
</svg>
